<svg width="52" height="52" viewBox="0 0 52 52" fill="none" xmlns="http://www.w3.org/2000/svg">
<path fill-rule="evenodd" clip-rule="evenodd" d="M6.11446 12.295L15.288 17.5916C15.8988 17.9282 16.28 18.5686 16.2846 19.266C16.2892 19.9634 15.9164 20.6088 15.3101 20.9533C14.7038 21.2979 13.9586 21.2879 13.3618 20.927L4.18823 15.6312C3.2768 15.0948 2.96829 13.9239 3.49709 13.008C4.0259 12.0921 5.19422 11.7739 6.11446 12.295ZM39 3.48326C39.9212 4.01519 40.2368 5.19319 39.705 6.11446L34.4084 15.288C34.0718 15.8988 33.4314 16.28 32.734 16.2846C32.0366 16.2892 31.3912 15.9164 31.0467 15.3101C30.7021 14.7038 30.7121 13.9586 31.073 13.3618L36.3695 4.18823C36.9015 3.26745 38.0789 2.95189 39 3.48326ZM38.6382 31.073L47.8118 36.3695C48.4226 36.7061 48.8038 37.3465 48.8083 38.0439C48.8129 38.7413 48.4402 39.3867 47.8339 39.7313C47.2276 40.0759 46.4823 40.0658 45.8855 39.705L36.712 34.4084C36.1012 34.0718 35.72 33.4314 35.7154 32.734C35.7108 32.0366 36.0836 31.3912 36.6899 31.0467C37.2962 30.7021 38.0414 30.7121 38.6382 31.073ZM20.2221 36.0078C21.1433 36.5397 21.4589 37.7177 20.927 38.639L15.6305 47.8125C15.2894 48.4147 14.6517 48.7876 13.9597 48.7895C13.2677 48.7914 12.6278 48.422 12.2835 47.8217C11.9392 47.2215 11.9433 46.4827 12.2943 45.8863L17.5909 36.7127C17.8462 36.2702 18.2669 35.9473 18.7604 35.815C19.2539 35.6828 19.7797 35.7522 20.2221 36.0078ZM15.6312 4.18823L20.9278 13.3618C21.2886 13.9586 21.2987 14.7038 20.9541 15.3101C20.6095 15.9164 19.9641 16.2892 19.2667 16.2846C18.5693 16.28 17.9289 15.8988 17.5923 15.288L12.295 6.11446C11.7739 5.19422 12.0921 4.0259 13.008 3.49709C13.9239 2.96829 15.0948 3.2768 15.6312 4.18823ZM48.5167 13C48.7721 13.4423 48.8413 13.9679 48.7091 14.4613C48.5769 14.9546 48.2541 15.3752 47.8118 15.6305L38.6382 20.927C38.0414 21.2879 37.2962 21.2979 36.6899 20.9533C36.0836 20.6088 35.7108 19.9634 35.7154 19.266C35.72 18.5686 36.1012 17.9282 36.712 17.5916L45.8855 12.295C46.8068 11.7632 47.9848 12.0788 48.5167 13ZM34.4084 36.7127L39.705 45.8863C40.0658 46.4831 40.0759 47.2283 39.7313 47.8346C39.3867 48.441 38.7413 48.8137 38.0439 48.8091C37.3465 48.8045 36.7061 48.4233 36.3695 47.8125L31.073 38.639C30.7121 38.0422 30.7021 37.297 31.0467 36.6906C31.3912 36.0843 32.0366 35.7116 32.734 35.7162C33.4314 35.7208 34.0718 36.1019 34.4084 36.7127ZM15.993 31.7779C16.2484 32.2202 16.3176 32.7459 16.1853 33.2392C16.0531 33.7325 15.7303 34.1531 15.288 34.4084L6.11446 39.705C5.19592 40.2111 4.04127 39.8894 3.51679 38.9812C2.99231 38.073 3.29076 36.9122 4.18823 36.3695L13.3618 31.073C14.283 30.5411 15.461 30.8567 15.993 31.7779ZM1.48571 24.073H12.9539C13.7745 24.073 14.4397 24.7382 14.4397 25.5587V26.4413C14.4397 27.2618 13.7745 27.927 12.9539 27.927H1.48571C0.665177 27.927 0 27.2618 0 26.4413V25.5587C0 24.7382 0.665177 24.073 1.48571 24.073ZM25.5587 0H26.4413C27.2618 0 27.927 0.665177 27.927 1.48571V12.9539C27.927 13.7745 27.2618 14.4397 26.4413 14.4397H25.5587C24.7382 14.4397 24.073 13.7745 24.073 12.9539V1.48571C24.073 0.665177 24.7382 0 25.5587 0ZM39.0468 24.073H50.5143C51.3348 24.073 52 24.7382 52 25.5587V26.4413C52 27.2618 51.3348 27.927 50.5143 27.927H39.0468C38.2263 27.927 37.5611 27.2618 37.5611 26.4413V25.5587C37.5611 24.7382 38.2263 24.073 39.0468 24.073ZM25.5587 37.5611H26.4413C27.2618 37.5611 27.927 38.2263 27.927 39.0468V50.5143C27.927 51.3348 27.2618 52 26.4413 52H25.5587C24.7382 52 24.073 51.3348 24.073 50.5143V39.0468C24.073 38.2263 24.7382 37.5611 25.5587 37.5611Z" fill="url(#paint0_angular)"/>
<defs>
<radialGradient id="paint0_angular" cx="0" cy="0" r="1" gradientUnits="userSpaceOnUse" gradientTransform="translate(26 26) scale(26)">
<stop offset="0.367859" stop-color="#606067" stop-opacity="0.6"/>
<stop offset="0.374523" stop-color="#6A717D"/>
<stop offset="0.377922" stop-color="#6A717D" stop-opacity="0.01"/>
</radialGradient>
</defs>
</svg>

